<svg width="32" height="32" viewBox="0 0 32 32" fill="none" xmlns="http://www.w3.org/2000/svg">
  <defs>
    <!-- Fire gradients -->
    <linearGradient id="outerFlameGradient" x1="16" y1="9" x2="16" y2="27" gradientUnits="userSpaceOnUse">
      <stop offset="0%" stop-color="#FFD700" />
      <stop offset="30%" stop-color="#FF8C00" />
      <stop offset="70%" stop-color="#FF6347" />
      <stop offset="100%" stop-color="#DC143C" />
    </linearGradient>
    
    <linearGradient id="innerFlameGradient" x1="16" y1="13" x2="16" y2="23" gradientUnits="userSpaceOnUse">
      <stop offset="0%" stop-color="#FFF700" />
      <stop offset="50%" stop-color="#FFD700" />
      <stop offset="100%" stop-color="#FF8C00" />
    </linearGradient>
  </defs>

  <!-- Outer flame -->
  <path
    d="M16 27 C11 24, 9 20, 9 16 C9 13, 11 12, 13 12 C13 11, 15 9, 16 9 C17 9, 19 11, 19 12 C21 12, 23 13, 23 16 C23 20, 21 24, 16 27 Z"
    fill="url(#outerFlameGradient)"
    style="filter: drop-shadow(0 2px 6px rgba(255, 99, 71, 0.4))"
  />

  <!-- Inner flame -->
  <path
    d="M16 23 C13 22, 12 19, 12 17 C12 15, 13 14, 15 14 C15 13, 15.5 13, 16 13 C16.5 13, 17 13, 17 14 C19 14, 20 15, 20 17 C20 19, 19 22, 16 23 Z"
    fill="url(#innerFlameGradient)"
  />

  <!-- Hot core -->
  <circle
    cx="16"
    cy="17"
    r="2.5"
    fill="#FFFF99"
    opacity="0.9"
    style="filter: blur(1px)"
  />
</svg>
