<svg width="32" height="32" viewBox="0 0 32 32" fill="none" xmlns="http://www.w3.org/2000/svg">
  <!-- Fire Icon -->
  <path d="M16 28C16 28 10 24 10 18C10 16.8954 10.8954 16 12 16C12 14.8954 12.8954 14 14 14C14 12.8954 14.8954 12 16 12C16 10.8954 16.8954 10 18 10C18 8.89543 18.8954 8 20 8C20 6.89543 20.8954 6 22 6C22 4.89543 21.1046 4 20 4C18.8954 4 18 4.89543 18 6C18 7.10457 17.1046 8 16 8C14.8954 8 14 7.10457 14 6C14 4.89543 13.1046 4 12 4C10.8954 4 10 4.89543 10 6C10 7.10457 10.8954 8 12 8C12 9.10457 12.8954 10 14 10C14 11.1046 14.8954 12 16 12C17.1046 12 18 12.8954 18 14C18 15.1046 17.1046 16 16 16C14.8954 16 14 15.1046 14 14C14 12.8954 13.1046 12 12 12C10.8954 12 10 12.8954 10 14C10 15.1046 10.8954 16 12 16C12 18.2091 13.7909 20 16 20C18.2091 20 20 18.2091 20 16C20 14.8954 20.8954 14 22 14C23.1046 14 24 14.8954 24 16C24 18.2091 22.2091 20 20 20C18.8954 20 18 19.1046 18 18C18 16.8954 17.1046 16 16 16V28Z" fill="#FF6B35"/>
  
  <!-- Fire gradient overlay -->
  <path d="M16 28C16 28 10 24 10 18C10 16.8954 10.8954 16 12 16C12 14.8954 12.8954 14 14 14C14 12.8954 14.8954 12 16 12C16 10.8954 16.8954 10 18 10C18 8.89543 18.8954 8 20 8C20 6.89543 20.8954 6 22 6C22 4.89543 21.1046 4 20 4C18.8954 4 18 4.89543 18 6C18 7.10457 17.1046 8 16 8C14.8954 8 14 7.10457 14 6C14 4.89543 13.1046 4 12 4C10.8954 4 10 4.89543 10 6C10 7.10457 10.8954 8 12 8C12 9.10457 12.8954 10 14 10C14 11.1046 14.8954 12 16 12C17.1046 12 18 12.8954 18 14C18 15.1046 17.1046 16 16 16C14.8954 16 14 15.1046 14 14C14 12.8954 13.1046 12 12 12C10.8954 12 10 12.8954 10 14C10 15.1046 10.8954 16 12 16C12 18.2091 13.7909 20 16 20C18.2091 20 20 18.2091 20 16C20 14.8954 20.8954 14 22 14C23.1046 14 24 14.8954 24 16C24 18.2091 22.2091 20 20 20C18.8954 20 18 19.1046 18 18C18 16.8954 17.1046 16 16 16V28Z" fill="url(#fireGradient)" opacity="0.8"/>
  
  <defs>
    <linearGradient id="fireGradient" x1="16" y1="4" x2="16" y2="28" gradientUnits="userSpaceOnUse">
      <stop stop-color="#FF6B35"/>
      <stop offset="0.3" stop-color="#F7931E"/>
      <stop offset="0.6" stop-color="#FFD23F"/>
      <stop offset="1" stop-color="#FF6B35"/>
    </linearGradient>
  </defs>
</svg>
